# xmcd
#
# Track frame offsets: 
#        150
#        14841
#        31954
#        49778
#        66285
#        84950
#        98521
#        127696
#        141492
#        158879
#        175101
#        192996
#        210701
#        225656
#        242158
#        258056
#        275667
#        293822
#        316424
#        343471
#
# Disc length: 4773 seconds
#
# Revision: 5
# Processed by: cddbd v1.5.2PL0 Copyright (c) Steve Scherf et al.
# Submitted via: ExactAudioCopyFreeDBPlugin 1.0
#
DISCID=2412a314
DTITLE=Various Artist - 2014 - Disco Classics Cd 1
DYEAR=2014
DGENRE=Blues
TTITLE0=Boys Town Gang - Can't Take My Eyes Off You
TTITLE1=Anita Ward - Ring My Bell
TTITLE2=Azoto - San Salvador
TTITLE3=Paul Hardcastle - Papa;s Got A Brand New Pig Bag
TTITLE4=Keith Marshall - Only Crying
TTITLE5=Cool Notes - Spend The Night
TTITLE6=Monyaka - Go Deh Yaka
TTITLE7=Franceso Napoli - Balla Balla
TTITLE8=2 In A Room - Do What U Want
TTITLE9=Gary Low - La Collegiala
TTITLE10=Tony Esposito - Papa Chico
TTITLE11=Fnhouse - Dancin' Easy
TTITLE12=Massara - Margherita
TTITLE13=Sharon Brown - I Specialie In Love
TTITLE14=Videokids - Woodspeckers From Space
TTITLE15=Imagination - Just An Illusion
TTITLE16=Fun Fun - Colour My Love
TTITLE17=B.V.S.M.P. - I Need You
TTITLE18=King MC - What Have I Done For You Lately
TTITLE19=David Christie - Saddle Up
EXTD=ID3G:   0
EXTT0=
EXTT1=
EXTT2=
EXTT3=
EXTT4=
EXTT5=
EXTT6=
EXTT7=
EXTT8=
EXTT9=
EXTT10=
EXTT11=
EXTT12=
EXTT13=
EXTT14=
EXTT15=
EXTT16=
EXTT17=
EXTT18=
EXTT19=
PLAYORDER=
